<svg width="80" height="80" viewBox="0 0 80 80" fill="none" xmlns="http://www.w3.org/2000/svg">
<g opacity="0.85" clip-path="url(#clip0)">
<path d="M55.4128 37.5268C56.4598 41.6045 57.0275 45.7904 57.1043 49.9997H68.4986C68.2586 44.9841 66.6908 40.1222 63.9557 35.9111C61.1368 36.5919 58.2856 37.1312 55.4128 37.5268Z" fill="#00B9F7"/>
<path d="M55.4128 65.3293C58.2856 65.725 61.1368 66.2642 63.9557 66.945C66.6908 62.7339 68.2586 57.8721 68.4986 52.8564H57.1043C57.0275 57.0657 56.4598 61.2516 55.4128 65.3293Z" fill="#00B9F7"/>
<path d="M17.8572 69.4506C21.3653 73.759 26.0501 76.9549 31.3415 78.6491C28.6341 75.5973 26.613 72.0002 25.4143 68.1006C22.7886 68.4549 20.2586 68.9049 17.8572 69.4506Z" fill="#00B9F7"/>
<path d="M48.6599 78.6491C53.9508 76.9546 58.6351 73.7588 62.1428 69.4506C59.7399 68.9049 57.2099 68.4506 54.5856 68.1006C53.3874 72.0001 51.3667 75.5971 48.6599 78.6491Z" fill="#00B9F7"/>
<path d="M31.34 24.207C26.0492 25.9015 21.3649 29.0974 17.8572 33.4056C20.26 33.9513 22.79 34.4056 25.4143 34.7556C26.6125 30.8561 28.6332 27.259 31.34 24.207Z" fill="#00B9F7"/>
<path d="M41.4287 67.1631V79.8574C45.5901 78.986 49.2859 74.3531 51.6301 67.7545C48.3344 67.4017 44.9173 67.2059 41.4287 67.1631Z" fill="#00B9F7"/>
<path d="M41.4287 64.305C45.223 64.3507 48.9416 64.5693 52.5173 64.965C53.5807 61.0134 54.162 56.9477 54.2487 52.8564H41.4287V64.305Z" fill="#00B9F7"/>
<path d="M62.143 33.4056C58.6349 29.0971 53.9501 25.9013 48.6587 24.207C51.366 27.2589 53.3872 30.856 54.5858 34.7556C57.2115 34.4013 59.7415 33.9513 62.143 33.4056Z" fill="#00B9F7"/>
<path d="M41.4287 50.0002H54.2487C54.162 45.9089 53.5807 41.8432 52.5173 37.8916C48.9459 38.2873 45.223 38.5059 41.4287 38.5516V50.0002Z" fill="#00B9F7"/>
<path d="M41.4287 23.0068V35.694C44.9173 35.6511 48.3344 35.4554 51.6301 35.1097C49.2859 28.5111 45.5901 23.8783 41.4287 23.0068Z" fill="#00B9F7"/>
<path d="M25.7515 50.0002H38.5715V38.5516C34.7772 38.5059 31.0586 38.2873 27.4829 37.8916C26.4195 41.8432 25.8381 45.9089 25.7515 50.0002Z" fill="#00B9F7"/>
<path d="M27.4829 64.965C31.0543 64.5693 34.7772 64.3507 38.5715 64.305V52.8564H25.7515C25.8381 56.9477 26.4195 61.0134 27.4829 64.965Z" fill="#00B9F7"/>
<path d="M28.3701 35.1097C31.6658 35.4554 35.0844 35.6511 38.5715 35.694V23.0068C34.4101 23.8783 30.7144 28.5111 28.3701 35.1097Z" fill="#00B9F7"/>
<path d="M78.5714 0H1.42857C0.639593 0 0 0.639593 0 1.42857V8.57143H80V1.42857C80 0.639593 79.3604 0 78.5714 0ZM4.28571 5.71429C3.49674 5.71429 2.85714 5.07469 2.85714 4.28571C2.85714 3.49674 3.49674 2.85714 4.28571 2.85714C5.07469 2.85714 5.71429 3.49674 5.71429 4.28571C5.71429 5.07469 5.07469 5.71429 4.28571 5.71429ZM10 5.71429C9.21102 5.71429 8.57143 5.07469 8.57143 4.28571C8.57143 3.49674 9.21102 2.85714 10 2.85714C10.789 2.85714 11.4286 3.49674 11.4286 4.28571C11.4286 5.07469 10.789 5.71429 10 5.71429ZM15.7143 5.71429C14.9253 5.71429 14.2857 5.07469 14.2857 4.28571C14.2857 3.49674 14.9253 2.85714 15.7143 2.85714C16.5033 2.85714 17.1429 3.49674 17.1429 4.28571C17.1429 5.07469 16.5033 5.71429 15.7143 5.71429ZM44.2857 5.71429H35.7143C34.9253 5.71429 34.2857 5.07469 34.2857 4.28571C34.2857 3.49674 34.9253 2.85714 35.7143 2.85714H44.2857C45.0747 2.85714 45.7143 3.49674 45.7143 4.28571C45.7143 5.07469 45.0747 5.71429 44.2857 5.71429ZM75.7143 5.71429H60C59.211 5.71429 58.5714 5.07469 58.5714 4.28571C58.5714 3.49674 59.211 2.85714 60 2.85714H75.7143C76.5033 2.85714 77.1429 3.49674 77.1429 4.28571C77.1429 5.07469 76.5033 5.71429 75.7143 5.71429Z" fill="#00B9F7"/>
<path d="M22.8958 52.8564H11.5015C11.7415 57.8721 13.3092 62.7339 16.0443 66.945C18.8632 66.2642 21.7144 65.725 24.5872 65.3293C23.5402 61.2516 22.9725 57.0657 22.8958 52.8564Z" fill="#00B9F7"/>
<path d="M11.5015 49.9997H22.8958C22.9725 45.7904 23.5402 41.6045 24.5872 37.5268C21.7144 37.1312 18.8632 36.5919 16.0443 35.9111C13.3092 40.1222 11.7415 44.9841 11.5015 49.9997Z" fill="#00B9F7"/>
<path d="M38.5715 79.8574V67.1631C35.083 67.2059 31.6658 67.4017 28.3701 67.7474C30.7144 74.3459 34.4101 78.9788 38.5715 79.8574Z" fill="#00B9F7"/>
<path d="M0 58.5716C0 59.3605 0.639593 60.0001 1.42857 60.0001H9.77C7.18983 50.9463 8.82148 41.2121 14.2129 33.4944C14.2385 33.4537 14.2666 33.4145 14.2971 33.3773C20.1705 24.993 29.7639 20.0003 40.0007 20.0003C50.2375 20.0003 59.8309 24.993 65.7043 33.3773C65.7343 33.4144 65.7586 33.453 65.7857 33.493C71.1782 41.2107 72.8104 50.9457 70.23 60.0001H78.5714C79.3604 60.0001 80 59.3605 80 58.5716V11.4287H0L0 58.5716ZM12.8571 15.7144H25.7143C26.5033 15.7144 27.1429 16.354 27.1429 17.143C27.1429 17.932 26.5033 18.5716 25.7143 18.5716H12.8571C12.0682 18.5716 11.4286 17.932 11.4286 17.143C11.4286 16.354 12.0682 15.7144 12.8571 15.7144ZM4.28571 15.7144H7.14286C7.93184 15.7144 8.57143 16.354 8.57143 17.143C8.57143 17.932 7.93184 18.5716 7.14286 18.5716H4.28571C3.49674 18.5716 2.85714 17.932 2.85714 17.143C2.85714 16.354 3.49674 15.7144 4.28571 15.7144ZM4.28571 21.4287H15.7143C16.5033 21.4287 17.1429 22.0683 17.1429 22.8573C17.1429 23.6463 16.5033 24.2859 15.7143 24.2859H4.28571C3.49674 24.2859 2.85714 23.6463 2.85714 22.8573C2.85714 22.0683 3.49674 21.4287 4.28571 21.4287ZM4.28571 27.143H7.14286C7.93184 27.143 8.57143 27.7826 8.57143 28.5716C8.57143 29.3605 7.93184 30.0001 7.14286 30.0001H4.28571C3.49674 30.0001 2.85714 29.3605 2.85714 28.5716C2.85714 27.7826 3.49674 27.143 4.28571 27.143Z" fill="#00B9F7"/>
</g>
<defs>
<clipPath id="clip0">
<rect width="80" height="80" fill="white"/>
</clipPath>
</defs>
</svg>
