<svg width="80" height="80" viewBox="0 0 80 80" fill="none" xmlns="http://www.w3.org/2000/svg">
<g opacity="0.85">
<path d="M63.4375 72.8125H55.7507L54.1882 68.125H25.8118L24.2493 72.8125H16.5625C15.2673 72.8125 14.2188 73.8611 14.2188 75.1562C14.2188 76.4514 15.2673 77.5 16.5625 77.5H63.4375C64.7327 77.5 65.7812 76.4514 65.7812 75.1562C65.7812 73.8611 64.7327 72.8125 63.4375 72.8125Z" fill="#ee1d52"/>
<path d="M63.4375 16.5625C62.1442 16.5625 61.0938 17.6129 61.0938 18.9062C61.0938 20.1996 62.1442 21.25 63.4375 21.25C64.7308 21.25 65.7812 20.1996 65.7812 18.9062C65.7812 17.6129 64.7308 16.5625 63.4375 16.5625Z" fill="#ee1d52"/>
<path d="M72.8125 2.5H7.03125C3.1543 2.5 0 5.6543 0 9.53125V49.375H14.2188V42.3438C14.2188 41.0486 15.2673 40 16.5625 40H20.1837C20.426 39.3182 20.7031 38.6493 21.0168 37.9926L18.4552 35.4291C17.5397 34.5135 17.5397 33.0304 18.4552 32.1149L25.0836 25.4865C25.9991 24.5709 27.4823 24.5709 28.3978 25.4865L30.9613 28.0499C31.618 27.7362 32.2864 27.4573 32.9688 27.2144V23.5938C32.9688 22.2986 34.0173 21.25 35.3125 21.25H44.6875C45.9827 21.25 47.0312 22.2986 47.0312 23.5938V27.215C47.713 27.4573 48.382 27.7368 49.0387 28.0499L51.6022 25.4865C52.5177 24.5715 54.0009 24.5715 54.9164 25.4865L61.5448 32.1149C62.4603 33.0304 62.4603 34.5142 61.5448 35.4291L58.9832 37.9926C59.2969 38.6499 59.574 39.3182 59.8163 40H63.4375C64.7327 40 65.7812 41.0486 65.7812 42.3438V49.375H80V9.53125C80 5.6543 76.6895 2.5 72.8125 2.5ZM63.4375 25.9375C59.5605 25.9375 56.4062 22.7832 56.4062 18.9062C56.4062 15.0293 59.5605 11.875 63.4375 11.875C67.3145 11.875 70.4688 15.0293 70.4688 18.9062C70.4688 22.7832 67.3145 25.9375 63.4375 25.9375Z" fill="#ee1d52"/>
<path d="M32.9688 47.0312C32.9688 47.8412 33.1555 48.6224 33.4235 49.375H46.5765C46.8445 48.6224 47.0312 47.8412 47.0312 47.0312C47.0312 43.1543 43.877 40 40 40C36.1224 40 32.9688 43.1543 32.9688 47.0312Z" fill="#ee1d52"/>
<path d="M24.184 42.9297C23.9166 43.9642 22.9828 44.6875 21.9135 44.6875H18.9062V49.375H28.5895C28.432 48.6029 28.2812 47.8271 28.2812 47.0312C28.2812 40.5701 33.5388 35.3125 40 35.3125C46.4612 35.3125 51.7188 40.5701 51.7188 47.0312C51.7188 47.8271 51.568 48.6029 51.4105 49.375H61.0938V44.6875H58.0865C57.0172 44.6875 56.0834 43.9642 55.816 42.9297C55.4425 41.4764 54.859 40.0708 54.0808 38.7524C53.5382 37.8326 53.6871 36.6608 54.4421 35.9052L56.5735 33.772L53.2593 30.4578L51.1261 32.5909C50.3705 33.349 49.1962 33.4998 48.2764 32.9504C46.9604 32.1747 45.5573 31.5887 44.1016 31.2152C43.067 30.9479 42.3438 30.014 42.3438 28.9447V25.9375H37.6562V28.9447C37.6562 30.014 36.933 30.9479 35.8984 31.2152C34.4427 31.5887 33.0396 32.1747 31.7236 32.9504C30.8081 33.4998 29.6313 33.349 28.8739 32.5909L26.7407 30.4578L23.4265 33.772L25.5579 35.9052C26.3129 36.6608 26.4618 37.8326 25.9192 38.7524C25.141 40.0708 24.5575 41.4764 24.184 42.9297Z" fill="#ee1d52"/>
<path d="M0 56.4062C0 60.2832 3.1543 63.4375 7.03125 63.4375H72.8125C76.6895 63.4375 80 60.2832 80 56.4062V54.0625H0V56.4062Z" fill="#ee1d52"/>
</g>
</svg>
