<svg width="43" height="49" viewBox="0 0 43 49" fill="none" xmlns="http://www.w3.org/2000/svg">
<path d="M4.96719 49C4.14204 48.9985 3.3315 48.7842 2.6153 48.3782C1.00258 47.4728 0 45.7152 0 43.8071V5.19314C0 3.27976 1.00258 1.52748 2.6153 0.622052C3.34856 0.204538 4.18155 -0.0101702 5.02721 0.000370211C5.87287 0.0109106 6.70014 0.246313 7.42257 0.681971L40.732 20.4363C41.4262 20.8676 41.9985 21.4665 42.3952 22.1768C42.7919 22.8871 43 23.6856 43 24.4975C43 25.3093 42.7919 26.1078 42.3952 26.8181C41.9985 27.5284 41.4262 28.1273 40.732 28.5586L7.41719 48.3183C6.67788 48.7611 5.83109 48.9967 4.96719 49Z" fill="black" fill-opacity="0.45"/>
<path fill-rule="evenodd" clip-rule="evenodd" d="M2.6153 48.3782C3.3315 48.7842 4.14204 48.9985 4.96719 49C5.83109 48.9967 6.67788 48.7611 7.41719 48.3183L40.732 28.5586C41.4262 28.1273 41.9985 27.5284 42.3952 26.8181C42.7919 26.1078 43 25.3093 43 24.4975C43 23.6856 42.7919 22.8871 42.3952 22.1768C41.9985 21.4665 41.4262 20.8676 40.732 20.4363L7.42257 0.681971C6.70014 0.246313 5.87287 0.0109106 5.02721 0.000370211C4.18155 -0.0101702 3.34856 0.204538 2.6153 0.622052C1.00258 1.52748 0 3.27976 0 5.19314V43.8071C0 45.7152 1.00258 47.4728 2.6153 48.3782ZM39.6918 22.1447L6.39604 2.39845L6.38973 2.39465C5.97258 2.14308 5.49335 2.00634 5.00228 2.00021C4.5112 1.99409 4.02853 2.11886 3.60492 2.36006L3.59442 2.36603C2.63876 2.90257 2 3.97196 2 5.19314V43.8071C2 45.0241 2.6397 46.0982 3.5944 46.6342L3.60162 46.6383C4.01581 46.8731 4.48571 46.9981 4.96527 47C5.46874 46.9971 5.96092 46.8592 6.3895 46.6025L6.3969 46.5981L39.6918 26.8503C40.0926 26.5977 40.4212 26.2509 40.649 25.843C40.8797 25.43 41 24.9671 41 24.4975C41 24.0278 40.8797 23.5649 40.649 23.152C40.4212 22.744 40.0926 22.3972 39.6918 22.1447Z" fill="white" fill-opacity="0.75"/>
</svg>
